<?xml version="1.0" encoding="UTF-8" standalone="no"?>
<svg
   width="16"
   height="15.982"
   version="1.1"
   id="svg8"
   sodipodi:docname="insert-link-symbolic.svg"
   inkscape:version="1.1.1 (3bf5ae0d25, 2021-09-20)"
   xmlns:inkscape="http://www.inkscape.org/namespaces/inkscape"
   xmlns:sodipodi="http://sodipodi.sourceforge.net/DTD/sodipodi-0.dtd"
   xmlns="http://www.w3.org/2000/svg"
   xmlns:svg="http://www.w3.org/2000/svg">
  <defs
     id="defs12" />
  <sodipodi:namedview
     id="namedview10"
     pagecolor="#ffffff"
     bordercolor="#666666"
     borderopacity="1.0"
     inkscape:pageshadow="2"
     inkscape:pageopacity="0.0"
     inkscape:pagecheckerboard="0"
     showgrid="false"
     inkscape:zoom="54.623951"
     inkscape:cx="7.9910002"
     inkscape:cy="7.9910002"
     inkscape:window-width="3440"
     inkscape:window-height="1408"
     inkscape:window-x="0"
     inkscape:window-y="32"
     inkscape:window-maximized="1"
     inkscape:current-layer="svg8" />
  <g
     font-weight="400"
     fill="#474747"
     id="g6"
     transform="translate(-0.01491465,2.6879595)">
    <path
       d="m 9.804,4.04 a 0.936,1.01 0 0 0 0.185,1.997 h 4.937 a 0.936,1.01 0 1 0 0,-1.997 H 9.989 a 0.936,1.01 0 0 0 -0.185,0 z m -8.991,0 C 0.363,4.142 0.024,4.639 0.07,5.128 0.116,5.618 0.54,6.032 1,6.038 H 5.916 C 6.451,6.123 7,5.618 7,5.038 7,4.46 6.451,3.954 5.916,4.04 H 1 a 0.834,0.834 0 0 0 -0.187,0 z M 6.059,0.964 A 2.492,2.492 0 0 0 4.152,2.432 2.686,2.686 0 0 0 3.996,2.964 H 12 C 11.974,2.838 11.946,2.701 11.906,2.589 A 2.467,2.467 0 0 0 9.563,0.964 h -3.13 c -0.126,0 -0.252,-0.019 -0.374,0 z m -2.063,6 c 0.236,1.132 1.24,2 2.438,2 h 3.129 c 1.197,0 2.202,-0.868 2.437,-2 z"
       style="line-height:normal;-inkscape-font-specification:Sans;text-indent:0;text-align:start;text-decoration-line:none;text-transform:none;marker:none"
       color="#000000"
       font-family="Sans"
       overflow="visible"
       id="path4" />
  </g>
</svg>
