<?xml version="1.0" encoding="UTF-8" standalone="no"?>
<!-- Created with Inkscape (http://www.inkscape.org/) -->

<svg
   width="64"
   height="64"
   viewBox="0 0 64 64"
   version="1.1"
   id="svg1"
   xml:space="preserve"
   xmlns="http://www.w3.org/2000/svg"
   xmlns:svg="http://www.w3.org/2000/svg"><defs
     id="defs1" /><path
     d="M 8,64 C 3.568,64 0,60.432 0,56 V 33 h 1.5 1.5 2 21 2 3 v 3 25 1.5 1.5 z M 8,61 H 28 V 36 H 26 5 3 v 20 c 0,2.77 2.23,5 5,5 z"
     style="fill:#2e3436;fill-opacity:0.35;fill-rule:evenodd"
     id="path20" /><path
     d="M 0,31 V 8 C 0,3.568 3.568,0 8,0 H 31 V 1.5 3 5 26 28 31 H 28 26 5 3 1.5 Z m 3,-3 h 2 21 2 V 26 5 3 H 8 C 5.23,3 3,5.23 3,8 Z"
     style="fill:#2e3436;fill-opacity:0.35;fill-rule:evenodd"
     id="path19" /><path
     d="M 33,31 V 28 26 5 3 1.5 0 h 23 c 4.432,0 8,3.568 8,8 V 31 H 62.5 61 36 Z m 3,-3 H 61 V 8 C 61,5.23 58.77,3 56,3 H 36 v 2 21 z"
     style="fill:#2e3436;fill-opacity:0.35;fill-rule:evenodd"
     id="path18" /><path
     d="M 33,64 V 62.5 61 36 33 h 3 25 1.5 1.5 v 23 c 0,4.432 -3.568,8 -8,8 z m 3,-3 h 20 c 2.77,0 5,-2.23 5,-5 V 36 H 36 Z"
     style="fill:#2e3436;fill-opacity:0.35;fill-rule:evenodd"
     id="path17" /><path
     d="M 26,38 V 59 H 8 C 6.303405,59 5,57.696595 5,56 V 38 Z"
     style="baseline-shift:baseline;display:inline;overflow:visible;vector-effect:none;fill:#2e3436;fill-rule:evenodd;enable-background:accumulate;stop-color:#000000;stop-opacity:1"
     id="path16" /></svg>
