<?xml version="1.0" encoding="UTF-8" standalone="no"?>
<!-- Created with Inkscape (http://www.inkscape.org/) -->

<svg
   width="64"
   height="64"
   viewBox="0 0 64 64"
   version="1.1"
   id="svg1"
   xml:space="preserve"
   xmlns="http://www.w3.org/2000/svg"
   xmlns:svg="http://www.w3.org/2000/svg"><defs
     id="defs1" /><g
     id="layer1"><path
       d="M 17,64 C 0,64 0,64 0,47 V 33 h 3 2 21 2 3 v 3 25 3 z m 0,-3 H 28 V 36 H 26 5 3 v 11 c 0,4.25 0.01474,7.396361 0.248047,9.496094 0.233303,2.099732 0.642654,2.902419 0.998047,3.257812 0.355393,0.355393 1.15808,0.764744 3.257812,0.998047 C 9.603638,60.985257 12.75,61 17,61 Z"
       style="baseline-shift:baseline;display:inline;overflow:visible;opacity:0.5;vector-effect:none;fill-rule:evenodd;enable-background:accumulate;stop-color:#000000;stop-opacity:1"
       id="path64" /><path
       d="M 33,64 V 61 36 33 h 3 25 3 v 14 c 0,17 0,17 -17,17 z m 3,-3 h 11 c 4.25,0 7.396362,-0.01474 9.496094,-0.248047 2.099732,-0.233303 2.902419,-0.642654 3.257812,-0.998047 0.355394,-0.355393 0.764743,-1.15808 0.998047,-3.257812 C 60.985254,54.396393 61,51.249902 61,47 V 36 H 36 Z"
       style="baseline-shift:baseline;display:inline;overflow:visible;opacity:0.5;vector-effect:none;fill-rule:evenodd;enable-background:accumulate;stop-color:#000000;stop-opacity:1"
       id="path63" /><path
       d="M 26,5 V 26 H 5 V 17 C 5,12.754625 5.02622,9.615587 5.236328,7.724609 5.478032,5.549274 5.54926,5.478033 7.724609,5.236328 9.615587,5.026219 12.754625,5 17,5 Z"
       style="baseline-shift:baseline;display:inline;overflow:visible;vector-effect:none;fill-rule:evenodd;enable-background:accumulate;stop-color:#000000;stop-opacity:1"
       id="path61" /><path
       d="M 0,31 V 17 C 0,0 0,0 17,0 h 14 v 3 2 21 2 3 H 28 26 5 3 Z m 3,-3 h 2 21 2 V 26 5 3 H 17 C 12.750077,3 9.603614,3.014743 7.503906,3.248047 5.404174,3.48135 4.601487,3.890701 4.246094,4.246094 3.890701,4.601487 3.48135,5.404174 3.248047,7.503906 3.014743,9.603638 3,12.75 3,17 Z"
       style="baseline-shift:baseline;display:inline;overflow:visible;opacity:0.5;vector-effect:none;fill-rule:evenodd;enable-background:accumulate;stop-color:#000000;stop-opacity:1"
       id="path65" /><path
       d="M 33,31 V 28 26 5 3 0 H 47 C 64,0 64,0 64,17 V 31 H 61 36 Z m 3,-3 H 61 V 17 C 61,12.75 60.98526,9.603638 60.751953,7.503906 60.518649,5.404174 60.1093,4.601487 59.753906,4.246094 59.398513,3.890701 58.595826,3.48135 56.496094,3.248047 54.396361,3.01474 51.25,3 47,3 H 36 v 2 21 z"
       style="baseline-shift:baseline;display:inline;overflow:visible;opacity:0.5;vector-effect:none;fill-rule:evenodd;enable-background:accumulate;stop-color:#000000;stop-opacity:1"
       id="path66" /></g></svg>
