<?xml version="1.0" encoding="UTF-8" standalone="no"?>
<!-- Created with Inkscape (http://www.inkscape.org/) -->

<svg
   width="64"
   height="64"
   viewBox="0 0 64 64"
   version="1.1"
   id="svg1"
   xml:space="preserve"
   xmlns="http://www.w3.org/2000/svg"
   xmlns:svg="http://www.w3.org/2000/svg"><defs
     id="defs1" /><path
     d="M 8,0 C 3.568,0 0,3.568 0,8 v 48 c 0,4.432 3.568,8 8,8 H 31 V 62.5 61 3 1.5 0 Z M 8,3 H 28 V 61 H 8 C 5.23,61 3,58.77 3,56 V 8 C 3,5.23 5.23,3 8,3 Z"
     style="fill:#2e3436;fill-opacity:0.35;fill-rule:evenodd"
     id="path11" /><path
     d="M 33,0 V 1.5 3 61 62.5 64 h 23 c 4.432,0 8,-3.568 8,-8 V 8 C 64,3.568 60.432,0 56,0 Z m 3,3 h 20 c 2.77,0 5,2.23 5,5 v 48 c 0,2.77 -2.23,5 -5,5 H 36 Z"
     style="fill:#2e3436;fill-opacity:0.35;fill-rule:evenodd"
     id="path10" /><path
     d="M 26,59 V 5 H 8 C 6.3034055,5 5,6.3034055 5,8 v 48 c 0,1.696594 1.3034055,3 3,3 z"
     style="baseline-shift:baseline;display:inline;overflow:visible;vector-effect:none;fill:#2e3436;fill-rule:evenodd;enable-background:accumulate;stop-color:#000000;stop-opacity:1"
     id="path12" /></svg>
