<?xml version="1.0" encoding="UTF-8" standalone="no"?>
<!-- Created with Inkscape (http://www.inkscape.org/) -->

<svg
   width="64"
   height="64"
   viewBox="0 0 64 64"
   version="1.1"
   id="svg1"
   xml:space="preserve"
   xmlns="http://www.w3.org/2000/svg"
   xmlns:svg="http://www.w3.org/2000/svg"><defs
     id="defs1" /><path
     d="m 56,0 c 4.432,0 8,3.568 8,8 v 48 c 0,4.432 -3.568,8 -8,8 H 33 V 62.5 61 3 1.5 0 Z m 0,3 H 36 v 58 h 20 c 2.77,0 5,-2.23 5,-5 V 8 C 61,5.23 58.77,3 56,3 Z"
     style="fill:#2e3436;fill-opacity:0.35;fill-rule:evenodd"
     id="path11" /><path
     d="M 31,0 V 1.5 3 61 62.5 64 H 8 C 3.568,64 0,60.432 0,56 V 8 C 0,3.568 3.568,0 8,0 Z M 28,3 H 8 C 5.23,3 3,5.23 3,8 v 48 c 0,2.77 2.23,5 5,5 h 20 z"
     style="fill:#2e3436;fill-opacity:0.35;fill-rule:evenodd"
     id="path10" /></svg>
