<?xml version="1.0" encoding="UTF-8" standalone="no"?>
<!-- Created with Inkscape (http://www.inkscape.org/) -->

<svg
   width="64"
   height="64"
   viewBox="0 0 64 64"
   version="1.1"
   id="svg1"
   xml:space="preserve"
   xmlns="http://www.w3.org/2000/svg"
   xmlns:svg="http://www.w3.org/2000/svg"><defs
     id="defs1" /><g
     id="layer1"><path
       d="m 47,64 c 17,0 17,0 17,-17 V 33 H 61 59 38 36 33 v 3 25 3 z m 0,-3 H 36 V 36 h 2 21 2 v 11 c 0,4.25 -0.01474,7.396361 -0.248047,9.496094 -0.233303,2.099732 -0.642654,2.902419 -0.998047,3.257812 -0.355393,0.355393 -1.15808,0.764744 -3.257812,0.998047 C 54.396362,60.985257 51.25,61 47,61 Z"
       style="baseline-shift:baseline;display:inline;overflow:visible;opacity:0.5;vector-effect:none;fill-rule:evenodd;enable-background:accumulate;stop-color:#000000;stop-opacity:1"
       id="path64" /><path
       d="M 31,64 V 61 36 33 H 28 3 0 V 47 C 0,64 0,64 17,64 Z M 28,61 H 17 C 12.75,61 9.603638,60.98526 7.503906,60.751953 5.404174,60.51865 4.601487,60.109299 4.246094,59.753906 3.8907,59.398513 3.481351,58.595826 3.248047,56.496094 3.014746,54.396393 3,51.249902 3,47 V 36 h 25 z"
       style="baseline-shift:baseline;display:inline;overflow:visible;opacity:0.5;vector-effect:none;fill-rule:evenodd;enable-background:accumulate;stop-color:#000000;stop-opacity:1"
       id="path63" /><path
       d="M 38,5 V 26 H 59 V 17 C 59,12.754625 58.97378,9.615587 58.763672,7.724609 58.521968,5.549274 58.45074,5.478033 56.275391,5.236328 54.384413,5.026219 51.245375,5 47,5 Z"
       style="baseline-shift:baseline;display:inline;overflow:visible;vector-effect:none;fill-rule:evenodd;enable-background:accumulate;stop-color:#000000;stop-opacity:1"
       id="path61" /><path
       d="M 64,31 V 17 C 64,0 64,0 47,0 H 33 v 3 2 21 2 3 h 3 2 21 2 z M 61,28 H 59 38 36 V 26 5 3 h 11 c 4.249923,0 7.396386,0.014743 9.496094,0.248047 2.099732,0.233303 2.902419,0.642654 3.257812,0.998047 0.355393,0.355393 0.764744,1.15808 0.998047,3.257812 C 60.985257,9.603638 61,12.75 61,17 Z"
       style="baseline-shift:baseline;display:inline;overflow:visible;opacity:0.5;vector-effect:none;fill-rule:evenodd;enable-background:accumulate;stop-color:#000000;stop-opacity:1"
       id="path65" /><path
       d="M 31,31 V 28 26 5 3 0 H 17 C 0,0 0,0 0,17 V 31 H 3 28 Z M 28,28 H 3 V 17 C 3,12.75 3.01474,9.603638 3.248047,7.503906 3.481351,5.404174 3.8907,4.601487 4.246094,4.246094 4.601487,3.890701 5.404174,3.48135 7.503906,3.248047 9.603639,3.01474 12.75,3 17,3 h 11 v 2 21 z"
       style="baseline-shift:baseline;display:inline;overflow:visible;opacity:0.5;vector-effect:none;fill-rule:evenodd;enable-background:accumulate;stop-color:#000000;stop-opacity:1"
       id="path66" /></g></svg>
