<?xml version="1.0" encoding="UTF-8" standalone="no"?>
<!-- Created with Inkscape (http://www.inkscape.org/) -->

<svg
   width="64"
   height="64"
   viewBox="0 0 64 64"
   version="1.1"
   id="svg1"
   xml:space="preserve"
   xmlns="http://www.w3.org/2000/svg"
   xmlns:svg="http://www.w3.org/2000/svg"><defs
     id="defs1" /><path
     d="M 17,0 C 0,0 0,0 0,17 v 30 c 0,17 0,17 17,17 h 11 3 2 4.806641 H 47 c 17,0 17,0 17,-17 V 17 C 64,0 64,0 47,0 H 42.914062 33 31 28 Z m 0,3 h 11 3 2 9.914062 H 47 c 4.25,0 7.396362,0.014743 9.496094,0.2480469 2.099732,0.2333036 2.902419,0.6426536 3.257812,0.9980468 C 60.1093,4.601487 60.518649,5.4041741 60.751953,7.5039062 60.985257,9.6036385 61,12.75 61,17 v 30 c 0,4.25 -0.01474,7.396362 -0.248047,9.496094 -0.233304,2.099732 -0.642653,2.902419 -0.998047,3.257812 -0.355393,0.355393 -1.15808,0.764744 -3.257812,0.998047 C 54.396361,60.98526 51.25,61 47,61 H 37.806641 33 31 28 17 C 12.75,61 9.6036385,60.985257 7.5039062,60.751953 5.4041741,60.51865 4.601487,60.109299 4.2460937,59.753906 3.8907005,59.398513 3.4813505,58.595826 3.2480469,56.496094 3.0147433,54.396362 3,51.25 3,47 V 17 C 3,12.75 3.0147433,9.6036385 3.2480469,7.5039062 3.4813505,5.4041741 3.8907005,4.601487 4.2460937,4.2460937 4.601487,3.8907005 5.4041741,3.4813505 7.5039062,3.2480469 9.6036384,3.0147433 12.75,3 17,3 Z"
     style="baseline-shift:baseline;display:inline;overflow:visible;opacity:0.5;vector-effect:none;fill-rule:evenodd;enable-background:accumulate;stop-color:#000000;stop-opacity:1"
     id="path2" /></svg>
