<?xml version="1.0" encoding="UTF-8" standalone="no"?>
<!-- Created with Inkscape (http://www.inkscape.org/) -->

<svg
   width="64"
   height="64"
   viewBox="0 0 64 64"
   version="1.1"
   id="svg1"
   xml:space="preserve"
   xmlns="http://www.w3.org/2000/svg"
   xmlns:svg="http://www.w3.org/2000/svg"><defs
     id="defs1" /><g
     id="layer1"><path
       d="M 17,0 C 0,0 0,0 0,17 v 14 h 3 2 21 2 3 V 28 3 0 Z m 0,3 H 28 V 28 H 26 5 3 V 17 C 3,12.75 3.01474,9.603639 3.248047,7.503906 3.48135,5.404174 3.890701,4.601487 4.246094,4.246094 4.601487,3.890701 5.404174,3.48135 7.503906,3.248047 9.603638,3.014743 12.75,3 17,3 Z"
       style="baseline-shift:baseline;display:inline;overflow:visible;opacity:0.5;vector-effect:none;fill-rule:evenodd;enable-background:accumulate;stop-color:#000000;stop-opacity:1"
       id="path64" /><path
       d="m 33,0 v 3 25 3 h 3 25 3 V 17 C 64,0 64,0 47,0 Z m 3,3 h 11 c 4.25,0 7.396362,0.01474 9.496094,0.248047 2.099732,0.233303 2.902419,0.642654 3.257812,0.998047 0.355394,0.355393 0.764743,1.15808 0.998047,3.257812 C 60.985254,9.603607 61,12.750098 61,17 V 28 H 36 Z"
       style="baseline-shift:baseline;display:inline;overflow:visible;opacity:0.5;vector-effect:none;fill-rule:evenodd;enable-background:accumulate;stop-color:#000000;stop-opacity:1"
       id="path63" /><path
       d="M 26,59 V 38 H 5 v 9 c 0,4.245375 0.02622,7.384413 0.236328,9.275391 0.241704,2.175335 0.312932,2.246576 2.488281,2.488281 C 9.615587,58.973781 12.754625,59 17,59 Z"
       style="baseline-shift:baseline;display:inline;overflow:visible;vector-effect:none;fill-rule:evenodd;enable-background:accumulate;stop-color:#000000;stop-opacity:1"
       id="path61" /><path
       d="M 0,33 V 47 C 0,64 0,64 17,64 H 31 V 61 59 38 36 33 H 28 26 5 3 Z m 3,3 h 2 21 2 v 2 21 2 H 17 C 12.750077,61 9.603614,60.985257 7.503906,60.751953 5.404174,60.51865 4.601487,60.109299 4.246094,59.753906 3.890701,59.398513 3.48135,58.595826 3.248047,56.496094 3.014743,54.396362 3,51.25 3,47 Z"
       style="baseline-shift:baseline;display:inline;overflow:visible;opacity:0.5;vector-effect:none;fill-rule:evenodd;enable-background:accumulate;stop-color:#000000;stop-opacity:1"
       id="path65" /><path
       d="m 33,33 v 3 2 21 2 3 h 14 c 17,0 17,0 17,-17 V 33 H 61 36 Z m 3,3 h 25 v 11 c 0,4.25 -0.01474,7.396362 -0.248047,9.496094 -0.233304,2.099732 -0.642653,2.902419 -0.998047,3.257812 -0.355393,0.355393 -1.15808,0.764744 -3.257812,0.998047 C 54.396361,60.98526 51.25,61 47,61 H 36 V 59 38 Z"
       style="baseline-shift:baseline;display:inline;overflow:visible;opacity:0.5;vector-effect:none;fill-rule:evenodd;enable-background:accumulate;stop-color:#000000;stop-opacity:1"
       id="path66" /></g></svg>
