<?xml version="1.0" encoding="UTF-8" standalone="no"?>
<!-- Created with Inkscape (http://www.inkscape.org/) -->

<svg
   width="64"
   height="64"
   viewBox="0 0 64 64"
   version="1.1"
   id="svg1"
   xml:space="preserve"
   xmlns="http://www.w3.org/2000/svg"
   xmlns:svg="http://www.w3.org/2000/svg"><defs
     id="defs1" /><g
     id="layer1"><path
       d="M 17,5 C 12.754625,5 9.6155874,5.0262194 7.7246094,5.2363281 5.5492828,5.4780312 5.4780354,5.5492449 5.2363281,7.7246094 5.0262194,9.6155876 5,12.754625 5,17 v 30 c 0,4.245375 0.026219,7.384413 0.2363281,9.275391 0.2417043,2.175335 0.3129315,2.246576 2.4882813,2.488281 C 9.615587,58.973781 12.754625,59 17,59 h 9 V 5 Z"
       style="baseline-shift:baseline;display:inline;overflow:visible;vector-effect:none;fill:#000000;fill-opacity:1;fill-rule:evenodd;enable-background:accumulate;stop-color:#000000;stop-opacity:1"
       id="path54" /><path
       d="M 17,0 C 0,0 0,0 0,17 V 47 C 0,64 0,64 17,64 H 31 V 0 Z m 0,3 H 28 V 61 H 17 C 12.75,61 9.6036385,60.985257 7.5039062,60.751953 5.4041741,60.51865 4.601487,60.109299 4.2460937,59.753906 3.8907005,59.398513 3.4813505,58.595826 3.2480469,56.496094 3.0147433,54.396362 3,51.25 3,47 V 17 C 3,12.75 3.0147433,9.6036385 3.2480469,7.5039062 3.4813505,5.4041741 3.8907005,4.601487 4.2460937,4.2460937 4.601487,3.8907005 5.4041741,3.4813505 7.5039062,3.2480469 9.6036384,3.0147433 12.75,3 17,3 Z"
       style="baseline-shift:baseline;display:inline;overflow:visible;opacity:0.5;vector-effect:none;fill:#000000;fill-opacity:1;fill-rule:evenodd;enable-background:accumulate;stop-color:#000000;stop-opacity:1"
       id="path50" /><path
       d="m 47,0 c 17,0 17,0 17,17 v 30 c 0,17 0,17 -17,17 H 33 V 0 Z m 0,3 H 36 v 58 h 11 c 4.25,0 7.396361,-0.01474 9.496094,-0.248047 2.099732,-0.233303 2.902419,-0.642654 3.257812,-0.998047 0.355394,-0.355393 0.764743,-1.15808 0.998047,-3.257812 C 60.985257,54.396362 61,51.25 61,47 V 17 C 61,12.75 60.985257,9.6036385 60.751953,7.5039062 60.518649,5.4041741 60.1093,4.601487 59.753906,4.2460937 59.398513,3.8907005 58.595826,3.4813505 56.496094,3.2480469 54.396362,3.0147433 51.25,3 47,3 Z"
       style="baseline-shift:baseline;display:inline;overflow:visible;opacity:0.5;vector-effect:none;fill:#000000;fill-opacity:1;fill-rule:evenodd;enable-background:accumulate;stop-color:#000000;stop-opacity:1"
       id="path56" /></g></svg>
